# xmcd
#
# Track frame offsets:
#	150
#	12538
#	32398
#	42134
#	59495
#	75461
#	90647
#	108731
#	118851
#	134549
#
# Disc length: 1997 seconds
#
# Revision: 1
# Processed by: cddbd v1.4PL0 Copyright (c) Steve Scherf et al.
# Submitted via: audiograbber 1.80
#
DISCID=8107cb0a
DTITLE=Rochesters - Heritage
DYEAR=1900
DGENRE=
TTITLE0=Blessed Old Book
TTITLE1=In My Father'S Eyes
TTITLE2=More Than I Asked For
TTITLE3=What A Day That Will Be
TTITLE4=How Long Has It Been
TTITLE5=He'Ll Do What He Said
TTITLE6=Across The Miles
TTITLE7=Something Money Can'T Buy
TTITLE8=Let Me Be The One
TTITLE9=Amazing Grace
EXTD=Gospel Music
EXTT0=
EXTT1=
EXTT2=
EXTT3=
EXTT4=
EXTT5=
EXTT6=
EXTT7=
EXTT8=
EXTT9=
PLAYORDER=
